<?xml version="1.0" encoding="utf-8"?>
<!-- Generator: Adobe Illustrator 22.1.0, SVG Export Plug-In . SVG Version: 6.00 Build 0)  -->
<svg version="1.1" id="Calque_1" xmlns="http://www.w3.org/2000/svg" xmlns:xlink="http://www.w3.org/1999/xlink" x="0px" y="0px"
	 viewBox="0 0 512 512" style="enable-background:new 0 0 512 512;" xml:space="preserve">
<g>
	<polygon style="fill:#000000;" points="2.1,427 48,427 48.1,397 2.3,397 	"/>
	<path style="fill:#000000;" d="M248.5,84.6l-7,60.9c9.1,18.2,32.4,49.4,50.7,65.2c18.7,43.6,31.6,56.1,49.2,63
		c3.4,14.3,6.5,29.6,11.6,44.9l0.7,2l1.5,1.5c14.8,14.8,38.8,30,56.8,37.4l6.9-16.6c-14.4-6-37-20.4-49.4-32.2
		c-3.3-10.3-5.8-21.2-8.4-32.2c-2-2.4-3.6-5.1-4.7-7.9c-5.6-14-0.4-29.6,10.7-40.6c-13.5-12.2-27.9-22.9-42.3-39.6
		c-2.5-16.5-17.4-36.5-26.4-54.1c5.1-23.1,2.3-37,5.8-60C287.7,61.9,285.4,62,271.1,46c-8.6,22.9,4.7,28.2,14.3,35.2l-7.5,51.3
		c1.1,7.5,1.7,14.6,2.4,21.5c-7.3-5-14-9.7-18.7-13.9c-0.6-21.4,8.4-45.8,1.7-68.1c-13.9-4.6-21.5-7.3-43.5-16.7
		C228.1,79.8,233.8,82.1,248.5,84.6z"/>
	<path style="fill:#000000;" d="M180.2,61.9L191,47.5C163.6,26.7,128.7,14.8,92.9,14c-1.5,0-3,0-4.5,0h0c-7,0-14,0.5-21,1.4
		l-0.1,18.2C107.7,27.8,149.6,38.7,180.2,61.9z"/>
	<path style="fill:#000000;" d="M400.3,268.3c12.8-6.1,18.1-18.3,15-25.9c-2-4.9-7.6-8.3-14.7-8.5c-0.5,0-1,0-1.5,0
		c-3.6,0.1-7.5,1.1-11.5,3c-12.8,6.1-18.1,18.3-15,25.9C375.7,270.4,387.5,274.4,400.3,268.3z"/>
	<polygon style="fill:#000000;" points="271.1,46 271.1,46 271.1,46 	"/>
	<path style="fill:#000000;" d="M398.4,288.2c-8.2,2.2-16.6,2-23.8-0.5c5.2,6.9,10.9,13.3,16.5,19.1l0.5,0.6l0.6,0.5
		c17.9,12.8,26.4,17,43,23.9l6.9-16.6c-16.1-6.7-22.1-9.5-38.7-21.4C401.8,291.8,400.1,290,398.4,288.2z"/>
	<polygon style="fill:#000000;" points="3,315 48.4,315 48.5,269 3.3,269 	"/>
	<polygon style="fill:#000000;" points="5,59 49.2,59 49.4,13.4 5.3,13.4 	"/>
	<path style="fill:#000000;" d="M425,411c-24.5-5.5-41.6-31.5-64-32c-23.3-1.8-45.7,31.5-64,32c-24.5-5.5-41.6-31.5-64-32
		c-0.7-0.1-1.5-0.1-2.2-0.1c-22.5,0.3-44,31.6-61.8,32.1c-24.5-5.5-41.6-31.5-64-32c-14.4,1.9-27,6.6-38.9,13l-0.1,21.6
		c12.8-8.3,27.2-16.3,38.9-16.6c24.5,5.5,41.6,31.5,64,32c23.3,1.8,45.7-31.5,64-32c24.5,5.5,41.6,31.5,64,32
		c23.3,1.8,45.7-31.5,64-32c24.5,5.5,41.6,31.5,64,32c17.6-1.7,33.9-9.9,47-18.2v-21.5C459.7,397.2,438.8,410.6,425,411z"/>
	<polygon style="fill:#000000;" points="4.5,123 49,123 49.2,77 4.8,77 	"/>
	<polygon style="fill:#000000;" points="3.5,251 48.6,251 48.8,205 3.8,205 	"/>
	<polygon style="fill:#000000;" points="2.5,379 48.2,379 48.3,333 2.8,333 	"/>
	<polygon style="fill:#000000;" points="4,187 48.8,187 49,141 4.3,141 	"/>
</g>
</svg>
