<?xml version="1.0" encoding="utf-8"?>
<!-- Generator: Adobe Illustrator 22.1.0, SVG Export Plug-In . SVG Version: 6.00 Build 0)  -->
<svg version="1.1" id="Calque_1" xmlns="http://www.w3.org/2000/svg" xmlns:xlink="http://www.w3.org/1999/xlink" x="0px" y="0px"
	 viewBox="0 0 512 512" style="enable-background:new 0 0 512 512;" xml:space="preserve">
<path style="fill-opacity:0;" d="M0,0h512v512H0V0z"/>
<g>
	<path style="fill:#FFFFFF;" d="M332.4,272c-3.3-15.1-8.3-28.1-15.2-37.3c-6.9-9.2-15.1-14.9-27.3-16.8l-15.9-2.5l10.1-12.6
		c8-10,13.4-24.4,13.4-40.4c0-31.8-19.9-55.3-41.4-55.3c-2.5,0-4-0.1-4-0.1h0h0c-19.6,2.5-37.3,25.6-37.3,55.4c0,16.4,5.7,31,14,41
		l10.2,12.2l-15.6,2.9c-10.8,2-18.7,7.7-25.5,17.1c-6.8,9.3-12,22.3-15.6,37.3c-6.6,27.1-8.1,60.2-8.3,89.5h36.1l0.7,8.7l9.1,122.6
		h76.2l8.1-122.5l0.6-8.7h34.4C338.8,332.9,338.4,299.3,332.4,272z"/>
	<polygon style="fill:#FFFFFF;" points="320.9,13.3 320.9,13.3 320.9,13.3 	"/>
	<path style="fill:#FFFFFF;" d="M493.8,361.9c-29.4-19.3-75.3-44.6-75.3-73c0-28.4,45.9-54.9,75.3-74.2c-33.9,0.4-78.3-11-90.5-35.6
		c-12.3-24.8,10-58.2,27.4-92.3c-29.2,20.1-57.6,46.4-78.8,32.1c-21.3-14.3-31.4-66.1-30.9-105.7c-16.6,34.6-38.5,60.2-63.1,60.2
		c-24.5,0-47-25.3-63.7-59.6c0.4,39.4-9.7,90.9-30.9,105.1c-21.2,14.2-49.6-12-78.8-32.1c17.5,34,42.1,67.5,29.8,92.3
		c-12.2,24.6-59.2,36-92.9,35.6c29.3,19.3,78.8,45.8,78.8,74.2c0,28.4-49.5,53.7-78.8,73c33.7-0.3,80.7,11.6,92.9,36.2
		c12.2,24.6-9,56.3-33.8,85.6c44.8-15.4,65.1-5.7,85.4,10.8h31.8c-42.7-35.4-72.1-107.8-72.1-191.6C125.5,184.3,184.4,88,256.9,88
		c72.5,0,131.4,96.3,131.4,214.9c0,83.7-29.3,156.2-72.1,191.6h27.3c19.8-14.6,39.8-25.7,89.7-9.3c-26.2-30.3-42.2-62.5-30-87.1
		C415.5,373.5,459.9,361.5,493.8,361.9z"/>
</g>
</svg>
