<?xml version="1.0" encoding="utf-8"?>
<!-- Generator: Adobe Illustrator 22.1.0, SVG Export Plug-In . SVG Version: 6.00 Build 0)  -->
<svg version="1.1" id="Calque_1" xmlns="http://www.w3.org/2000/svg" xmlns:xlink="http://www.w3.org/1999/xlink" x="0px" y="0px"
	 viewBox="0 0 512 512" style="enable-background:new 0 0 512 512;" xml:space="preserve">
<g>
	<path style="fill:#000000;" d="M153.5,281.9c-2.8-2.5-7.3-4.1-14.1-4.2l-47.6,53.9c0.9,6.7,3,10.9,5.9,13.5
		c2.8,2.5,7.3,4.1,14.1,4.2l47.6-53.9C158.4,288.6,156.3,284.4,153.5,281.9z"/>
	<path style="fill:#000000;" d="M196.8,307.7c-2.8-2.5-7.3-4.1-14.1-4.2l0,0L129,364.4c0.9,6.7,3,10.9,5.9,13.5
		c2.9,2.5,7.3,4.1,14.1,4.2l53.7-60.9C201.7,314.4,199.6,310.2,196.8,307.7z"/>
	<path style="fill:#000000;" d="M250.8,385.1c-2.8-2.5-7.3-4.1-14.1-4.2l0,0l-38.8,44.3c0.9,6.8,3,11,5.9,13.5
		c2.8,2.5,7.3,4.1,14.1,4.2l38.8-44.3C255.8,391.8,253.6,387.6,250.8,385.1z"/>
	<polygon style="fill:#000000;" points="139.4,277.7 139.4,277.7 139.4,277.7 	"/>
	<path style="fill:#000000;" d="M18,62.5v225.9c4.5,0.6,9.9,0.9,15.3,1c11.9,0.1,21.7-0.6,27.2-1.1L113.1,155L18,62.5z"/>
	<path style="fill:#000000;" d="M226.1,346c-2.8-2.5-7.3-4.1-14.1-4.2l0,0l-47.6,53.9c0.9,6.7,3,10.9,5.9,13.5
		c2.8,2.5,7.3,4.1,14.1,4.2l47.6-53.9C231.1,352.7,229,348.5,226.1,346z"/>
	<polygon style="fill:#000000;" points="411.4,139.3 490.4,272.3 494,267.8 494,61.4 	"/>
	<polygon style="fill:#000000;" points="407.2,167.4 407.2,167.4 407.2,167.4 	"/>
	<path style="fill:#000000;" d="M400.1,171.9c-0.2,0.1-5.4,3.3-6.9,4.3l-10.6,6.4l0.2,0.1c-4.9,3.1-6.3,3.9-11.9,7.4
		c-2.8,1.8-2.9,1.8-5.6,3.5c-20.3-10.9-42.3-19.3-68-25.9c-32.3,9.8-66.5,23.9-100.7,37.1c14.2,17.1,30,22.7,45.8,22.8
		c18.4,0.2,37.3-7.8,50.2-16.8l7.4-5.1l7.4,10.7l115.5,83.3l45.1-30l-60.9-102.5L400.1,171.9z"/>
	<path style="fill:#000000;" d="M272.1,385.7L272.1,385.7c1.7,4.6,2.7,9.7,3,15.2l0.2,3.7l-8.3,9.4l26.7,19
		c6.5-1.6,10.3-4.1,12.5-7.1c2.1-3,3.2-7.5,2.6-14.1L272.1,385.7z"/>
	<path style="fill:#000000;" d="M295.8,230.3c-14.7,8.7-33.4,15.6-53.6,15.4c-23.6-0.3-48.8-11.6-67.4-40c-2.7-4.2-1.5-9.7,2.6-12.5
		c0.5-0.4,1.1-0.6,1.7-0.9c13-4.9,26.2-10.2,39.3-15.4l-92.1-6.8l0,0L81.1,284.9l16.7,12.8l30.8-34.9l2.5-2.8l3.7-0.2
		c1.5-0.1,3-0.1,4.4-0.1c10.2,0.1,19.3,2.7,26.2,8.8c5.1,4.5,8.4,10.4,10.4,17.3l2.3-0.1c12-0.8,22.8,1.7,30.6,8.6
		c7.8,6.9,11.6,17.3,12.4,29.3l0.1,1.1c6.4,1.2,12.2,3.8,16.9,7.9c7.8,6.9,11.6,17.3,12.4,29.3l0.2,3.1c0.6,0.2,1.3,0.4,1.9,0.7
		l2-2.9l5.5-7.7l2.8-4l7.3,5.2l59.4,42.3c6.5-1.6,10.3-4.1,12.5-7.1c2.1-3,3.2-7.5,2.6-14.1l-71.3-51l-7.3-5.2l5.2-7.2l6.7-9.4
		l7.3,5.2l80.3,57.2c6.5-1.6,10.3-4.1,12.5-7.1c2.1-3,3.2-7.5,2.6-14.1l-92.4-65.5l-7.3-5.2l10.4-14.7l7.3,5.2l92.4,65.6
		c6.5-1.6,10.3-4.1,12.5-7.1c2.1-3,3.2-7.5,2.6-14.1L295.8,230.3z"/>
</g>
</svg>
